<svg xmlns="http://www.w3.org/2000/svg" viewBox="0 0 24 24" fill="currentColor">
  <path d="M12 .5C5.65.5.5 5.65.5 12c0 5.08 3.29 9.38 7.86 10.9.58.11.79-.25.79-.56 0-.28-.01-1.02-.02-2-3.2.7-3.88-1.54-3.88-1.54-.53-1.36-1.3-1.72-1.3-1.72-1.06-.72.08-.71.08-.71 1.17.08 1.79 1.2 1.79 1.2 1.04 1.78 2.73 1.27 3.4.97.11-.75.41-1.27.75-1.56-2.56-.29-5.26-1.28-5.26-5.7 0-1.26.45-2.28 1.19-3.09-.12-.29-.52-1.46.11-3.05 0 0 .97-.31 3.18 1.18a11.06 11.06 0 0 1 2.9-.39c.98.01 1.98.13 2.9.39 2.2-1.5 3.17-1.18 3.17-1.18.63 1.59.23 2.76.11 3.05.74.81 1.19 1.83 1.19 3.09 0 4.43-2.71 5.41-5.29 5.69.42.36.8 1.08.8 2.18 0 1.58-.01 2.86-.01 3.25 0 .31.21.68.8.56C20.71 21.38 24 17.08 24 12 24 5.65 18.35.5 12 .5z"/>
</svg>